<svg xmlns="http://www.w3.org/2000/svg" xmlns:xlink="http://www.w3.org/1999/xlink" viewBox="0,0,256,256" width="144px" height="144px"><g fill="none" fill-rule="nonzero" stroke="none" stroke-width="none" stroke-linecap="none" stroke-linejoin="none" stroke-miterlimit="10" stroke-dasharray="" stroke-dashoffset="0" font-family="none" font-weight="none" font-size="none" text-anchor="none" style="mix-blend-mode: normal"><g transform="scale(5.33333,5.33333)"><path d="M38.667,42h4.373c0.53,0 0.96,-0.43 0.96,-0.961v-16.399c0,-1.775 -0.818,-3.452 -2.218,-4.544l-12.552,-9.797c-0.723,-0.564 -1.737,-0.564 -2.46,0l-12.552,9.797c-1.4,1.093 -2.218,2.769 -2.218,4.544v16.399c0,0.531 0.43,0.961 0.961,0.961h4.373z" fill="#3b82f6" stroke="none" stroke-width="1" stroke-linecap="butt" stroke-linejoin="miter"></path><path d="M11.647,14.233l-1.86,1.465c-1.444,1.138 -2.287,2.875 -2.287,4.713v17.089c0,0.552 0.448,1 1,1h4.5" fill="none" stroke="#ffffff" stroke-width="3" stroke-linecap="round" stroke-linejoin="round"></path><path d="M35,38.5h4.5c0.552,0 1,-0.448 1,-1v-17.089c0,-1.838 -0.843,-3.575 -2.287,-4.713l-12.975,-10.223c-0.726,-0.572 -1.749,-0.572 -2.475,0l-5.263,4.146" fill="none" stroke="#ffffff" stroke-width="3" stroke-linecap="round" stroke-linejoin="round"></path><path d="M28.89,42.262l-4.89,-3.762l-4.89,3.762c-0.658,0.506 -1.61,0.037 -1.61,-0.793v-15.969c0,-1.105 0.895,-2 2,-2h9c1.105,0 2,0.895 2,2v15.969c0,0.83 -0.952,1.299 -1.61,0.793z" fill="none" stroke="#ffffff" stroke-width="3" stroke-linecap="round" stroke-linejoin="round"></path></g></g></svg>